<svg width="41" height="41" viewBox="0 0 41 41" fill="none" xmlns="http://www.w3.org/2000/svg">
<rect x="0.753052" y="0.789551" width="40" height="40" rx="20" fill="#F6F6F6"/>
<path d="M20.0819 18.0623H21.4228V27.4259C21.4228 27.9638 21.33 28.4297 21.1444 28.8236C20.9626 29.2176 20.6861 29.5225 20.3148 29.7384C19.9474 29.9543 19.4834 30.0623 18.9228 30.0623C18.8773 30.0623 18.8319 30.0623 18.7864 30.0623C18.741 30.0623 18.6955 30.0623 18.6501 30.0623V28.8123C18.6955 28.8123 18.7372 28.8123 18.7751 28.8123C18.8129 28.8123 18.8546 28.8123 18.9001 28.8123C19.3092 28.8123 19.6084 28.6911 19.7978 28.4486C19.9872 28.21 20.0819 27.8691 20.0819 27.4259V18.0623ZM18.241 22.2441V21.1986H23.241V22.2441H18.241Z" fill="#111111"/>
</svg>
